<svg width="24" height="24" viewBox="0 0 24 24" fill="none" xmlns="http://www.w3.org/2000/svg">
<path d="M7.75737 14.8284C7.36685 15.219 7.36685 15.8521 7.75737 16.2427C8.1479 16.6332 8.78106 16.6332 9.17158 16.2427L12 13.4142L14.8284 16.2427C15.219 16.6332 15.8521 16.6332 16.2427 16.2427C16.6332 15.8522 16.6332 15.219 16.2427 14.8285L13.4142 12L16.2427 9.17158C16.6332 8.78106 16.6332 8.1479 16.2427 7.75737C15.8521 7.36685 15.219 7.36685 14.8284 7.75737L12 10.5858L9.17158 7.75739C8.78106 7.36687 8.1479 7.36687 7.75737 7.75739C7.36685 8.14792 7.36685 8.78108 7.75737 9.17161L10.5858 12L7.75737 14.8284Z" fill="black"/>
</svg>
