<svg width="24" height="24" viewBox="0 0 24 24" fill="none" xmlns="http://www.w3.org/2000/svg">
<path fill-rule="evenodd" clip-rule="evenodd" d="M13.2635 4.98895C13.0795 5.13052 12.9031 5.28729 12.7359 5.45925L11.9974 6.22027L11.2566 5.45856C11.0879 5.28515 10.9099 5.12722 10.7242 4.98478C8.83026 3.53191 6.13676 3.68984 4.41661 5.45856C2.5278 7.4007 2.5278 10.5495 4.41661 12.4917L11.5211 19.7968C11.7847 20.0677 12.212 20.0677 12.4755 19.7968L19.5855 12.4903C21.4701 10.5417 21.4733 7.40174 19.5842 5.45925C17.8592 3.68555 15.1606 3.52878 13.2635 4.98895ZM18.1479 11.0999C18.1485 11.0993 18.149 11.0987 18.1496 11.0981C19.2852 9.92203 19.2814 8.0166 18.1504 6.85365C17.0437 5.71569 15.2773 5.71545 14.1703 6.85293C14.1701 6.85317 14.1699 6.85341 14.1696 6.85365L11.9989 9.09051L9.82282 6.85296C8.71932 5.7183 6.95387 5.7183 5.85037 6.85296C4.71654 8.01879 4.71654 9.93144 5.85037 11.0973L11.9986 17.4191L18.1479 11.0999Z" fill="black"/>
</svg>
