<svg width="24" height="24" viewBox="0 0 24 24" fill="none" xmlns="http://www.w3.org/2000/svg">
<path fill-rule="evenodd" clip-rule="evenodd" d="M15 9.5C15 12.5376 12.5376 15 9.5 15C6.46243 15 4 12.5376 4 9.5C4 6.46243 6.46243 4 9.5 4C12.5376 4 15 6.46243 15 9.5ZM14.0491 15.4633C12.7873 16.4274 11.2105 17 9.5 17C5.35786 17 2 13.6421 2 9.5C2 5.35786 5.35786 2 9.5 2C13.6421 2 17 5.35786 17 9.5C17 11.2105 16.4274 12.7873 15.4633 14.0491L20.0711 18.6569C20.4616 19.0474 20.4616 19.6805 20.0711 20.0711C19.6805 20.4616 19.0474 20.4616 18.6569 20.0711L14.0491 15.4633Z" fill="#121212"/>
</svg>
